<svg width="137" height="51" viewBox="0 0 137 51" fill="none" xmlns="http://www.w3.org/2000/svg">
<path d="M37.2105 0H18.7895C10.0692 0 3 7.06919 3 15.7895V34.2105C3 42.9308 10.0692 50 18.7895 50H37.2105C45.9308 50 53 42.9308 53 34.2105V15.7895C53 7.06919 45.9308 0 37.2105 0Z" fill="url(#paint0_linear_7_63)"/>
<g filter="url(#filter0_d_7_63)">
<path d="M16.6954 22.1627C15.6807 21.2264 14.0991 21.2899 13.1627 22.3046C12.2264 23.3193 12.2899 24.9009 13.3046 25.8373L16.6954 22.1627ZM13.3046 25.8373L24.4848 36.1542L27.8756 32.4796L16.6954 22.1627L13.3046 25.8373Z" fill="#E4E4E4"/>
<path d="M42.6683 18.8151C43.6707 17.8657 43.7137 16.2833 42.7643 15.2809C41.8148 14.2784 40.2325 14.2354 39.23 15.1849L42.6683 18.8151ZM39.23 15.1849L21.2809 32.1849L24.7191 35.8151L42.6683 18.8151L39.23 15.1849Z" fill="#E4E4E4"/>
</g>
<g filter="url(#filter1_d_7_63)">
<path d="M20.0172 17.6605C19.4084 17.0987 18.4594 17.1368 17.8976 17.7457C17.3358 18.3545 17.3739 19.3035 17.9828 19.8653L20.0172 17.6605ZM17.9828 19.8653L23.9928 25.4112L26.0273 23.2064L20.0172 17.6605L17.9828 19.8653Z" fill="#E4E4E4"/>
<path d="M33.9806 16.0891C34.5821 15.5194 34.6079 14.57 34.0382 13.9685C33.4685 13.3671 32.5191 13.3413 31.9177 13.9109L33.9806 16.0891ZM31.9177 13.9109L22.269 23.0494L24.3319 25.2275L33.9806 16.0891L31.9177 13.9109Z" fill="#E4E4E4"/>
</g>
<path d="M68.664 33V18.84H63.096V16.2H77.352V18.84H71.784V33H68.664ZM85.3018 33V30.408L85.1338 29.856V25.32C85.1338 24.44 84.8698 23.76 84.3418 23.28C83.8138 22.784 83.0138 22.536 81.9418 22.536C81.2218 22.536 80.5098 22.648 79.8058 22.872C79.1178 23.096 78.5338 23.408 78.0538 23.808L76.8778 21.624C77.5658 21.096 78.3818 20.704 79.3258 20.448C80.2858 20.176 81.2778 20.04 82.3018 20.04C84.1578 20.04 85.5898 20.488 86.5978 21.384C87.6218 22.264 88.1338 23.632 88.1338 25.488V33H85.3018ZM81.2698 33.168C80.3098 33.168 79.4698 33.008 78.7498 32.688C78.0298 32.352 77.4698 31.896 77.0698 31.32C76.6858 30.728 76.4938 30.064 76.4938 29.328C76.4938 28.608 76.6618 27.96 76.9978 27.384C77.3498 26.808 77.9178 26.352 78.7018 26.016C79.4858 25.68 80.5258 25.512 81.8218 25.512H85.5418V27.504H82.0378C81.0138 27.504 80.3258 27.672 79.9738 28.008C79.6218 28.328 79.4458 28.728 79.4458 29.208C79.4458 29.752 79.6618 30.184 80.0938 30.504C80.5258 30.824 81.1258 30.984 81.8938 30.984C82.6298 30.984 83.2858 30.816 83.8618 30.48C84.4538 30.144 84.8778 29.648 85.1338 28.992L85.6378 30.792C85.3498 31.544 84.8298 32.128 84.0778 32.544C83.3418 32.96 82.4058 33.168 81.2698 33.168ZM94.6239 33.168C93.5519 33.168 92.5199 33.032 91.5279 32.76C90.5519 32.472 89.7759 32.128 89.1999 31.728L90.3519 29.448C90.9279 29.816 91.6159 30.12 92.4159 30.36C93.2159 30.6 94.0159 30.72 94.8159 30.72C95.7599 30.72 96.4399 30.592 96.8559 30.336C97.2879 30.08 97.5039 29.736 97.5039 29.304C97.5039 28.952 97.3599 28.688 97.0719 28.512C96.7839 28.32 96.4079 28.176 95.9439 28.08C95.4799 27.984 94.9599 27.896 94.3839 27.816C93.8239 27.736 93.2559 27.632 92.6799 27.504C92.1199 27.36 91.6079 27.16 91.1439 26.904C90.6799 26.632 90.3039 26.272 90.0159 25.824C89.7279 25.376 89.5839 24.784 89.5839 24.048C89.5839 23.232 89.8159 22.528 90.2799 21.936C90.7439 21.328 91.3919 20.864 92.2239 20.544C93.0719 20.208 94.0719 20.04 95.2239 20.04C96.0879 20.04 96.9599 20.136 97.8399 20.328C98.7199 20.52 99.4479 20.792 100.024 21.144L98.8719 23.424C98.2639 23.056 97.6479 22.808 97.0239 22.68C96.4159 22.536 95.8079 22.464 95.1999 22.464C94.2879 22.464 93.6079 22.6 93.1599 22.872C92.7279 23.144 92.5119 23.488 92.5119 23.904C92.5119 24.288 92.6559 24.576 92.9439 24.768C93.2319 24.96 93.6079 25.112 94.0719 25.224C94.5359 25.336 95.0479 25.432 95.6079 25.512C96.1839 25.576 96.7519 25.68 97.3119 25.824C97.8719 25.968 98.3839 26.168 98.8479 26.424C99.3279 26.664 99.7119 27.008 99.9999 27.456C100.288 27.904 100.432 28.488 100.432 29.208C100.432 30.008 100.192 30.704 99.7119 31.296C99.2479 31.888 98.5839 32.352 97.7199 32.688C96.8559 33.008 95.8239 33.168 94.6239 33.168ZM104.144 30.144L104.216 26.376L110.912 20.184H114.512L108.824 25.896L107.24 27.216L104.144 30.144ZM101.696 33V15.192H104.696V33H101.696ZM111.368 33L106.688 27.216L108.584 24.816L115.016 33H111.368ZM121.142 33.168C119.718 33.168 118.47 32.888 117.398 32.328C116.342 31.752 115.518 30.968 114.926 29.976C114.35 28.984 114.062 27.856 114.062 26.592C114.062 25.312 114.342 24.184 114.902 23.208C115.478 22.216 116.262 21.44 117.254 20.88C118.262 20.32 119.406 20.04 120.686 20.04C121.934 20.04 123.046 20.312 124.022 20.856C124.998 21.4 125.766 22.168 126.326 23.16C126.886 24.152 127.166 25.32 127.166 26.664C127.166 26.792 127.158 26.936 127.142 27.096C127.142 27.256 127.134 27.408 127.118 27.552H116.438V25.56H125.534L124.358 26.184C124.374 25.448 124.222 24.8 123.902 24.24C123.582 23.68 123.142 23.24 122.582 22.92C122.038 22.6 121.406 22.44 120.686 22.44C119.95 22.44 119.302 22.6 118.742 22.92C118.198 23.24 117.766 23.688 117.446 24.264C117.142 24.824 116.99 25.488 116.99 26.256V26.736C116.99 27.504 117.166 28.184 117.518 28.776C117.87 29.368 118.366 29.824 119.006 30.144C119.646 30.464 120.382 30.624 121.214 30.624C121.934 30.624 122.582 30.512 123.158 30.288C123.734 30.064 124.246 29.712 124.694 29.232L126.302 31.08C125.726 31.752 124.998 32.272 124.118 32.64C123.254 32.992 122.262 33.168 121.142 33.168ZM128.727 33V20.184H131.583V23.712L131.247 22.68C131.631 21.816 132.231 21.16 133.047 20.712C133.879 20.264 134.911 20.04 136.143 20.04V22.896C136.015 22.864 135.895 22.848 135.783 22.848C135.671 22.832 135.559 22.824 135.447 22.824C134.311 22.824 133.407 23.16 132.735 23.832C132.063 24.488 131.727 25.472 131.727 26.784V33H128.727Z" fill="white"/>
<defs>
<filter id="filter0_d_7_63" x="0.499989" y="4.5" width="54.9492" height="45.6542" filterUnits="userSpaceOnUse" color-interpolation-filters="sRGB">
<feFlood flood-opacity="0" result="BackgroundImageFix"/>
<feColorMatrix in="SourceAlpha" type="matrix" values="0 0 0 0 0 0 0 0 0 0 0 0 0 0 0 0 0 0 127 0" result="hardAlpha"/>
<feOffset dy="2"/>
<feGaussianBlur stdDeviation="6"/>
<feComposite in2="hardAlpha" operator="out"/>
<feColorMatrix type="matrix" values="0 0 0 0 0 0 0 0 0 0 0 0 0 0 0 0 0 0 0.26 0"/>
<feBlend mode="normal" in2="BackgroundImageFix" result="effect1_dropShadow_7_63"/>
<feBlend mode="normal" in="SourceGraphic" in2="effect1_dropShadow_7_63" result="shape"/>
</filter>
<filter id="filter1_d_7_63" x="5.49999" y="3.5" width="40.9492" height="35.9112" filterUnits="userSpaceOnUse" color-interpolation-filters="sRGB">
<feFlood flood-opacity="0" result="BackgroundImageFix"/>
<feColorMatrix in="SourceAlpha" type="matrix" values="0 0 0 0 0 0 0 0 0 0 0 0 0 0 0 0 0 0 127 0" result="hardAlpha"/>
<feOffset dy="2"/>
<feGaussianBlur stdDeviation="6"/>
<feComposite in2="hardAlpha" operator="out"/>
<feColorMatrix type="matrix" values="0 0 0 0 0 0 0 0 0 0 0 0 0 0 0 0 0 0 0.26 0"/>
<feBlend mode="normal" in2="BackgroundImageFix" result="effect1_dropShadow_7_63"/>
<feBlend mode="normal" in="SourceGraphic" in2="effect1_dropShadow_7_63" result="shape"/>
</filter>
<linearGradient id="paint0_linear_7_63" x1="6.81356" y1="4.23729" x2="75.0339" y2="94.9153" gradientUnits="userSpaceOnUse">
<stop offset="0.111378" stop-color="#1490AA"/>
<stop offset="1" stop-color="#016A81"/>
</linearGradient>
</defs>
</svg>
